<?xml version="1.0" encoding="UTF-8" standalone="no"?>
<!-- Uploaded to: SVG Repo, www.svgrepo.com, Generator: SVG Repo Mixer Tools -->

<svg
   fill="#000000"
   version="1.1"
   id="Capa_1"
   width="247.50888"
   height="363.01746"
   viewBox="0 0 247.50887 363.01746"
   xml:space="preserve"
   sodipodi:docname="drop.svg"
   inkscape:version="1.3.2 (091e20e, 2023-11-25)"
   inkscape:export-filename="drop.png"
   inkscape:export-xdpi="135.39845"
   inkscape:export-ydpi="135.39845"
   xmlns:inkscape="http://www.inkscape.org/namespaces/inkscape"
   xmlns:sodipodi="http://sodipodi.sourceforge.net/DTD/sodipodi-0.dtd"
   xmlns="http://www.w3.org/2000/svg"
   xmlns:svg="http://www.w3.org/2000/svg"><defs
   id="defs1" /><sodipodi:namedview
   id="namedview1"
   pagecolor="#ffffff"
   bordercolor="#999999"
   borderopacity="1"
   inkscape:showpageshadow="0"
   inkscape:pageopacity="0"
   inkscape:pagecheckerboard="true"
   inkscape:deskcolor="#d1d1d1"
   showguides="false"
   inkscape:zoom="1.9126373"
   inkscape:cx="72.674521"
   inkscape:cy="185.34617"
   inkscape:window-width="1800"
   inkscape:window-height="990"
   inkscape:window-x="0"
   inkscape:window-y="44"
   inkscape:window-maximized="0"
   inkscape:current-layer="Capa_1" />
<g
   id="g1"
   transform="translate(-56.351379,-1.1180552)"
   style="fill:#6db2f8;fill-opacity:1">
	<path
   d="M 265.5664,165.86121 C 216.85235,121.57308 194.36319,97.121222 201.26653,22.282329 202.11336,13.101853 201.23213,-1.4152566 187.55649,1.4976709 175.33336,4.1012125 162.658,21.439962 146.70489,42.178682 80.936218,127.67666 -17.937836,310.37486 145.39474,356.7397 219.88506,377.88509 289.68531,354.92392 302.29359,271.847 308.9217,228.1739 294.11214,191.81343 265.5664,165.86121 Z M 96.363269,274.27575 c -6.82224,-15.98253 -12.264611,-48.07543 1.134759,-63.52861 8.360512,-9.64197 12.466542,13.71444 14.497722,24.00289 3.61391,18.30543 20.01786,35.74104 40.0639,44.25447 33.12621,14.0685 72.35787,14.45333 67.9798,27.58409 -10.30469,30.90594 -94.32784,36.4418 -123.676181,-32.31284 z"
   id="path1"
   sodipodi:nodetypes="sssssssssssss"
   style="fill:#6db2f8;fill-opacity:1" />
</g>
</svg>
